<svg width="448.33" height="448.11" xmlns="http://www.w3.org/2000/svg" viewBox="0 0 448.33 448.11"><defs><style>.cls-1{fill:#082f53;}.cls-2{fill:url(#Degradado_sin_nombre_9);}.cls-3{fill:#022b50;}.cls-4{fill:#004a75;}.cls-5{fill:#016899;}</style><radialGradient id="Degradado_sin_nombre_9" cx="215.7" cy="224.06" fx="215.7" fy="224.06" r="183.42" gradientTransform="matrix(1, 0, 0, 1, 0, 0)" gradientUnits="userSpaceOnUse"><stop offset="0" stop-color="#016899"/><stop offset="1" stop-color="#022b50"/></radialGradient></defs><g id="Capa_1-2"><path class="cls-1" d="M223.72,448.11C99.4,447.86-1.27,345.84,.01,221.64,1.3,97.11,105.21-2.62,229.1,.05c121.54,2.62,222.16,104.35,219.16,229.46-2.86,119.73-101.43,218.75-224.54,218.6Zm.55-433.19c-116.12,0-210.81,94.27-210.53,209.58,.29,114.94,94.86,208.7,210.52,208.71,114.89,.01,210.21-94.05,210.24-207.46,.03-116.82-93.72-210.83-210.23-210.83Z"/><path class="cls-2" d="M389.95,137.39c-12.82-25.96-31.28-46.91-54.38-64.03-16.16-11.98-33.94-20.76-53.08-26.85,.14,.59-3.34-1.45-5.08-1.92-43.69-11.85-86.36-10.29-128.17,8.48-13.44,6.03-26.41,12.46-37.93,21.65-5.26,2.94-9.53,7.16-13.9,11.17-63.45,58.21-79.5,147.91-40.08,224.51,11.97,23.26,28.3,43.03,48.98,59.14,0-.02,0-.04,0-.06,2.33-.42,4.03,.1,4.16,2.9,.61,.76,1.08,1.68,1.84,2.24,11.76,8.74,24.38,16.04,37.93,21.61,15.55,6.39,31.45,11.58,48.36,12.95,.8-1.22,1.4-.84,1.91,.25,1.97,.83,4.03,.75,6.1,.66,.32-.27,.63-.53,.95-.8-.14-.91-.49-1.4-.97-1.67,.47,.27,.83,.76,.97,1.67,.78,.07,1.59,.1,1.88,1.05,1,.56,2.02,.61,3.07,.15,.06-2.87,2.22-2.11,3.87-2.24,1.86-.14,3.23,.3,3.08,2.57h2.06c5.66,.25,11.33,.64,16.96-.46,.86-1.35,1.82-1.45,2.87-.22,26.56-1.6,50.79-10.46,73.71-23.85h-24.59c-.71,1.05-1.37,.98-2.01-.07-4.72,.6-9.28-1.16-13.97-.94-1.21-1.65-3.1-1.66-4.85-2.12-8.71-2.26-17.54-3.77-25.86-7.73-14.24-6.78-28.15-13.95-40.31-24.14-1.38-2.75-4.03-4.28-6.16-6.29-13.77-13.06-24.83-28.25-32.55-45.42-7.66-17.01-12.19-35.1-12.87-53.93-1.02-28.44,4.56-55.23,20.35-79.36,4.4-6.73,9.64-12.77,16.6-17.03,9.39-5.75,15.45-2.76,15.92,8.16,.55,12.82,4.92,24,13.16,33.75,9.58,11.34,21.73,19.1,35.4,24.34,17.73,6.79,36.1,10.07,55.18,8.09,12.84-.37,25.28-2.61,37.07-7.9,4.67-1.18,9.06-3,13.05-5.74h0c9.72-4.66,17.97-11.22,24.64-19.63,12.87-16.23,16.23-33.55,6.66-52.92Z"/><path class="cls-1" d="M212.53,410.48c.06-2.87,2.22-2.11,3.87-2.24,1.86-.14,3.23,.3,3.08,2.57-2.33,.21-4.67,.57-6.95-.33Z"/><path class="cls-3" d="M106.26,369.48c2.37-.44,4.09,.07,4.22,2.89-2.09,.03-3-1.65-4.22-2.89Z"/><path class="cls-5" d="M206.63,410.08c.32-.27,.63-.53,.95-.8,.78,.07,1.59,.1,1.88,1.05-.98,.36-1.94,.38-2.83-.25Z"/><path class="cls-5" d="M238.49,410.34c.86-1.35,1.82-1.45,2.87-.22-.92,.61-1.88,.62-2.87,.22Z"/><path class="cls-5" d="M198.62,409.17c.8-1.22,1.4-.84,1.91,.25-.69,.36-1.33,.31-1.91-.25Z"/><path class="cls-4" d="M290.48,386.27c-.71,1.05-1.37,.98-2.01-.07,.69-.53,1.36-.56,2.01,.07Z"/></g></svg>