<svg version="1.2" xmlns="http://www.w3.org/2000/svg" viewBox="0 0 1084 335" width="1084" height="335">
	<title>Logo alumni-ai</title>
	<style>
		.s0 { fill: #ffffff } 
		.s1 { fill: #cbcbcb } 
		.s2 { fill: #ececec } 
		.s3 { fill: #979797 } 
	</style>
	<g id="Capa 1">
		<g id="&lt;Group&gt;">
			<g id="&lt;Group&gt;">
				<path id="&lt;Compound Path&gt;" fill-rule="evenodd" class="s0" d="m177 206.1h-45.1l-11.4 36.5h-6.6l36.8-118.5h8.8l35.6 118.5h-6.7zm-21.9-75h-0.4l-21.1 69h42.1z"/>
				<path id="&lt;Compound Path&gt;" class="s0" d="m203.5 124.1h6.6v118.5h-6.6z"/>
				<path id="&lt;Compound Path&gt;" class="s0" d="m278 242.6h-6.6v-13.1h-0.4q-1.1 2.8-3 5.5-1.9 2.8-4.6 4.9-2.7 2.2-6.3 3.4-3.5 1.3-8 1.3-4.6 0-8.5-1.3-4-1.4-6.9-4.3-3-2.9-4.6-7.3-1.7-4.4-1.7-10.5v-65.4h6.6v62.1q0 11.6 4.5 16.2 4.5 4.5 12.5 4.5 4.9 0 8.7-2.1 3.8-2.2 6.4-5.9 2.5-3.7 3.9-8.7 1.4-4.9 1.4-10.7v-55.4h6.6z"/>
				<path id="&lt;Compound Path&gt;" class="s0" d="m295.9 155.8h6.7v12.9h0.3q1.8-6.9 7.3-10.9 5.5-4 13.6-4 4.9 0 8.3 1.4 3.4 1.4 5.6 3.8 2.1 2.3 3.2 5.2 1.1 2.9 1.6 5.9h0.3q0.5-2.3 2-5.2 1.5-2.8 4.1-5.3 2.6-2.5 6.3-4.1 3.7-1.7 8.9-1.7 10.5 0 15.6 5.8 5.2 5.8 5.2 16.3v66.7h-6.7v-65q0-8.9-3.9-13.4-4-4.4-10.9-4.4-9.8 0-14.8 7-4.9 7-4.9 18.4v57.4h-6.6v-62q0-9.9-3.4-15.4-3.4-5.4-11.7-5.4-5.1 0-8.7 2.1-3.7 2-6 5.5-2.4 3.5-3.6 8.1-1.1 4.6-1.1 9.7v57.4h-6.7z"/>
				<path id="&lt;Compound Path&gt;" class="s0" d="m402.5 155.8h6.6v13.1h0.3q1.2-2.8 3.1-5.5 1.9-2.8 4.6-4.9 2.7-2 6.2-3.4 3.6-1.3 8-1.3 4.6 0 8.6 1.3 3.9 1.4 6.9 4.3 3 2.9 4.6 7.3 1.7 4.4 1.7 10.5v65.4h-6.7v-62.2q0-11.5-4.5-16.1-4.4-4.5-12.4-4.5-4.9 0-8.7 2.1-3.9 2.2-6.4 5.9-2.5 3.7-3.9 8.8-1.4 5-1.4 10.6v55.4h-6.6z"/>
				<path id="&lt;Compound Path&gt;" class="s0" d="m470.7 124.1h6.6v16.9h-6.6zm0 31.7h6.6v86.8h-6.6z"/>
				<path id="&lt;Compound Path&gt;" class="s0" d="m515.3 140h-28.2v-15.9h74.8v15.9h-27.7v102.6h-18.9z"/>
				<path id="&lt;Compound Path&gt;" fill-rule="evenodd" class="s0" d="m574.7 200.3v5.1c0 12 1.5 27.2 14.9 27.2 12.8 0 14.3-14.6 14.3-19.9h16.9c0 19.8-11.9 32.2-31.3 32.2-14.6 0-32.7-4.3-32.7-45.6 0-23.4 5-48.3 33-48.3 24.9 0 31.5 14.9 31.5 39.8v9.5zm28.7-12.3v-4.8c0-11.3-3.6-19.9-13.7-19.9-11.5 0-15 11.3-15 22.9v1.8z"/>
				<path id="&lt;Compound Path&gt;" class="s0" d="m696.3 210.1c-1.1 21.4-8.4 34.8-30.5 34.8-25.9 0-33.2-19.2-33.2-46.9 0-27.8 7.3-47 33.2-47 26.7-0.3 30.7 20.9 30.7 32h-17.9c0-8.3-2.4-19.1-12.8-18.7-12.9 0-15.3 13.9-15.3 33.7 0 19.7 2.4 33.6 15.3 33.6 9.9 0.2 13.6-8.1 13.6-21.5z"/>
				<path id="&lt;Compound Path&gt;" class="s0" d="m748.3 179.4v-2.4c0-7.1-2.5-13.7-11.8-13.7-7.2 0-12.8 3.3-12.8 11.6 0 7 3.2 9.8 12.6 13.1l11.5 4c13.2 4.5 19.4 11.6 19.4 25.7 0 19.1-14 27.2-32.1 27.2-22.5 0-29.3-10.4-29.3-27.7v-3.3h15.9v2.8c0 10.3 3.7 15.9 13.9 15.9 9.8 0 14.6-4.9 14.6-13.1 0-6.6-3.4-10.9-9.7-13.1l-14.6-5.1c-13.5-4.7-19.1-11.5-19.1-25.7 0-16.8 12.1-24.6 30.5-24.6 22.7 0 27.9 13.3 27.9 24.4v4z"/>
				<path id="&lt;Compound Path&gt;" class="s0" d="m826.1 232.1h-0.5c-4.5 8-13 12.8-22.9 12.8-13.3 0-22.3-6.1-22.3-29.2v-62.4h18v64.1c0 9.9 4.4 13.2 12.1 13.2 7.6 0 14.6-4.9 14.6-14.9v-62.4h17.9v89.3h-16.9z"/>
				<path id="&lt;Compound Path&gt;" fill-rule="evenodd" class="s0" d="m860.3 153.3h16.9v11h0.3c3.7-8 10.3-13.3 20.1-13.3 20.4 0 28.7 17.4 28.7 48.1 0 37.5-15.3 45.8-27.5 45.8-9.7 0-17-4.8-20.3-12.8h-0.3v39.7h-17.9zm32.1 77.3c10.3 0 15-7.6 15-32.3 0-20.3-2.7-33.1-15.1-33.1-12.3 0-15.1 12.6-15.1 31.7 0 21.4 2.6 33.7 15.2 33.7z"/>
			</g>
			<g id="&lt;Group&gt;">
				<path id="&lt;Path&gt;" class="s1" d="m725.8 114.4l180.3-62.4 12.1 62.4z"/>
			</g>
			<path id="&lt;Path&gt;" class="s2" d="m704 115.4l180.3-62.4 12.1 62.4z"/>
			<path id="&lt;Path&gt;" class="s3" d="m724.3 114.4l204.7-58.9v58.9"/>
		</g>
	</g>
</svg>