<svg version="1.2" xmlns="http://www.w3.org/2000/svg" viewBox="0 0 1132 339" width="1132" height="339">
	<title>Logo alumni-ai</title>
	<style>
		.s0 { fill: #ffffff } 
		.s1 { fill: #7bbbe8 } 
		.s2 { fill: #a2cff0 } 
		.s3 { fill: #009bdb } 
	</style>
	<g id="_Artboards_">
	</g>
	<g id="Capa 1">
		<g id="&lt;Group&gt;">
			<g id="&lt;Group&gt;">
				<path id="&lt;Compound Path&gt;" fill-rule="evenodd" class="s0" d="m238.6 209.7h-45l-11.4 36.5h-6.6l36.8-118.4h8.7l35.5 118.4h-6.6zm-21.9-74.9h-0.4l-21.1 68.9h42z"/>
				<path id="&lt;Compound Path&gt;" class="s0" d="m265.1 127.8h6.6v118.4h-6.6z"/>
				<path id="&lt;Compound Path&gt;" class="s0" d="m339.5 246.2h-6.6v-13.1h-0.4q-1.1 2.8-3 5.6-1.9 2.7-4.6 4.9-2.7 2.1-6.3 3.4-3.5 1.2-7.9 1.2-4.6 0-8.6-1.3-3.9-1.4-6.9-4.3-3-2.9-4.6-7.2-1.7-4.4-1.7-10.6v-65.3h6.7v62.1q0 11.6 4.5 16.1 4.4 4.5 12.4 4.5 4.9 0 8.7-2.1 3.9-2.2 6.4-5.9 2.5-3.7 3.9-8.6 1.4-5 1.4-10.8v-55.3h6.6z"/>
				<path id="&lt;Compound Path&gt;" class="s0" d="m357.4 159.5h6.6v12.9h0.4q1.8-6.9 7.3-10.9 5.4-4 13.5-4 5 0 8.4 1.4 3.4 1.4 5.5 3.8 2.2 2.3 3.3 5.2 1 2.9 1.5 5.9h0.4q0.5-2.4 2-5.2 1.5-2.8 4-5.3 2.6-2.5 6.3-4.1 3.8-1.7 8.9-1.7 10.5 0 15.6 5.8 5.2 5.8 5.2 16.3v66.6h-6.7v-64.9q0-8.9-3.9-13.4-3.9-4.4-10.8-4.4-9.9 0-14.8 7-4.9 7-4.9 18.4v57.3h-6.7v-61.9q0-9.9-3.3-15.4-3.4-5.4-11.8-5.4-5.1 0-8.7 2-3.6 2.1-6 5.6-2.4 3.4-3.5 8.1-1.2 4.6-1.2 9.7v57.3h-6.6z"/>
				<path id="&lt;Compound Path&gt;" class="s0" d="m463.8 159.5h6.7v13.1h0.3q1.2-2.8 3-5.6 1.9-2.7 4.7-4.8 2.7-2 6.2-3.4 3.5-1.3 8-1.3 4.6 0 8.5 1.3 4 1.4 7 4.3 2.9 2.9 4.6 7.3 1.6 4.4 1.6 10.5v65.3h-6.6v-62.1q0-11.5-4.5-16.1-4.5-4.5-12.5-4.5-4.9 0-8.7 2.1-3.8 2.2-6.3 5.9-2.6 3.7-3.9 8.7-1.4 5.1-1.4 10.7v55.3h-6.7z"/>
				<path id="&lt;Compound Path&gt;" class="s0" d="m532 127.8h6.6v16.9h-6.6zm0 31.7h6.6v86.7h-6.6z"/>
				<path id="&lt;Compound Path&gt;" class="s0" d="m576.6 143.8h-28.2v-16h74.8v16h-27.7v102.4h-18.9z"/>
				<path id="&lt;Compound Path&gt;" fill-rule="evenodd" class="s0" d="m635.9 203.9v5.2c0 11.9 1.5 27.2 15 27.2 12.7 0 14.2-14.6 14.2-19.9h16.9c0 19.7-11.9 32.1-31.3 32.1-14.6 0-32.7-4.3-32.7-45.6 0-23.3 5-48.2 33-48.2 24.9 0 31.5 14.9 31.5 39.8v9.4zm28.7-12.2v-4.8c0-11.3-3.7-19.9-13.8-19.9-11.4 0-14.9 11.2-14.9 22.8v1.9z"/>
				<path id="&lt;Compound Path&gt;" class="s0" d="m757.4 213.7c-1.1 21.4-8.4 34.8-30.5 34.8-25.8 0-33.1-19.2-33.1-46.9 0-27.7 7.3-46.9 33.1-46.9 26.7-0.3 30.7 20.9 30.7 32h-17.9c0-8.3-2.3-19.1-12.8-18.7-12.9 0-15.2 13.9-15.2 33.6 0 19.7 2.3 33.7 15.2 33.7 10 0.1 13.6-8.2 13.6-21.6z"/>
				<path id="&lt;Compound Path&gt;" class="s0" d="m809.3 183v-2.3c0-7.1-2.5-13.7-11.7-13.7-7.2 0-12.8 3.3-12.8 11.6 0 6.9 3.1 9.7 12.6 13.1l11.4 3.9c13.3 4.5 19.4 11.6 19.4 25.7 0 19.1-13.9 27.2-32 27.2-22.5 0-29.3-10.4-29.3-27.7v-3.3h15.9v2.8c0 10.3 3.7 16 13.9 16 9.8 0 14.6-5 14.6-13.1 0-6.7-3.5-11-9.8-13.1l-14.5-5.2c-13.5-4.6-19.1-11.4-19.1-25.7 0-16.7 12.1-24.5 30.5-24.5 22.7 0 27.8 13.3 27.8 24.4v3.9z"/>
				<path id="&lt;Compound Path&gt;" class="s0" d="m887.1 235.8h-0.5c-4.5 7.9-12.9 12.7-22.9 12.7-13.3 0-22.2-6.1-22.2-29.1v-62.4h17.9v64c0 10 4.5 13.3 12.1 13.3 7.6 0 14.6-5 14.6-14.9v-62.4h17.9v89.2h-16.9z"/>
				<path id="&lt;Compound Path&gt;" fill-rule="evenodd" class="s0" d="m921.2 157h16.9v11h0.4c3.6-8 10.3-13.3 20-13.3 20.4 0 28.7 17.4 28.7 48.1 0 37.4-15.2 45.7-27.5 45.7-9.6 0-16.9-4.8-20.2-12.7h-0.4v39.6h-17.9zm32.2 77.2c10.3 0 14.9-7.6 14.9-32.3 0-20.2-2.6-33-15.1-33-12.2 0-15.1 12.6-15.1 31.7 0 21.4 2.7 33.6 15.3 33.6z"/>
			</g>
			<g id="&lt;Group&gt;">
				<path id="&lt;Path&gt;" class="s1" d="m786.9 118.2l180.2-62.5 12 62.5z"/>
			</g>
			<path id="&lt;Path&gt;" class="s2" d="m765.1 118.2l180.2-62.5 12 62.5z"/>
			<path id="&lt;Path&gt;" class="s3" d="m785.4 118.2l204.5-58.9v58.9"/>
		</g>
	</g>
</svg>