<svg xmlns="http://www.w3.org/2000/svg" viewBox="0 0 529.83 142.8"><defs><style>.cls-1{fill:#fff;}</style></defs><g id="Capa_2" data-name="Capa 2"><g id="Capa_1-2" data-name="Capa 1"><rect class="cls-1" x="399.58" y="120.53" width="2.13" height="17.19"/><polygon class="cls-1" points="424.72 123.19 419.76 123.19 419.76 121.4 431.84 121.4 431.84 123.19 426.85 123.19 426.85 137.72 424.72 137.72 424.72 123.19"/><rect class="cls-1" x="482.57" y="120.53" width="2.13" height="17.19"/><path class="cls-1" d="M515.58,126h2.13v11.72h-2.13Zm4.45-4.89-2.95,3.46h-1.5l2.13-3.46Z"/><path class="cls-1" d="M527.58,131.74c-2.32-.05-5,.36-5,2.64a1.87,1.87,0,0,0,2,2,3,3,0,0,0,2.87-2,2,2,0,0,0,.1-.68Zm2.08,3.17a19.81,19.81,0,0,0,.17,2.81h-1.91l-.19-1.48h-.07a4.34,4.34,0,0,1-3.59,1.74,3.34,3.34,0,0,1-3.58-3.36c0-2.83,2.52-4.38,7-4.36V130a2.4,2.4,0,0,0-2.66-2.71,5.6,5.6,0,0,0-3.07.87l-.49-1.43a7.66,7.66,0,0,1,3.88-1c3.6,0,4.47,2.44,4.47,4.79Z"/><path class="cls-1" d="M366.34,90c-.13,0-41.92,0-42,0-58.18,8.5-57.78-49.7-20.06-52.65h20c4.18,0,1.59-10.09,2.27-12.3a2.15,2.15,0,0,0-2.23-2.2H299.94c-53.46,3.85-53.28,77.66-.13,81.59h43.7s21.44-.06,22.82,0a2.29,2.29,0,0,0,2.18-2.17C367.88,100,370.3,90,366.34,90M254.76,56.48h-41.2a2.22,2.22,0,0,1-2.19-2.16c-1.47-6.31,11.28-15,3.9-15.12-.88.32-17.7-.85-17.65.84-16.15,23.51-5.5,62.78,34.31,64.34h22.83a2.16,2.16,0,0,0,2.2-2.18c-.65-2.26,1.84-12.27-2.2-12.26-14.62-.37-41.95,4.5-43.39-16.72A2.21,2.21,0,0,1,213.6,71c1.37-1,45,2.48,43.36-2.16-.63-2.15,1.81-12.45-2.2-12.38m.05-33.72H132.49c-4,.12-1.6,9.67-2.22,12.19a2.19,2.19,0,0,0,2.18,2.34c26.71.05,93.83-.08,122.34,0,4.06-.21,1.48-10.17,2.17-12.38a2.16,2.16,0,0,0-2.15-2.15M171.25,42.28c.43-2.09-1.63-3.31-2.17-3.08H156.41C151.75,40.47,155.2,51,154.22,60c0,.88,0,41.49,0,42.27a2.22,2.22,0,0,0,2.16,2.18h12.67C174,106.73,170.06,47.6,171.25,42.28Z"/><path class="cls-1" d="M502,22.79h-6.21c-17.55,0-14.23,0-14.87,0A2.29,2.29,0,0,0,478.8,25c.62,2.19-1.75,12.34,2.19,12.3,9.47,1.06,32.2-5,30.75,11.46,1.37,17.63-20,11-30.78,12.12-4,.11-1.5,10.79-2.14,13A2.19,2.19,0,0,0,481,76h22.47c37.83-4.19,32.83-52.37-1.42-53.17M377.52,55.68c-5.06-.35-22.65,1.28-26.73-1.72-6.68-4.74-4-17.91,6.19-16.67h40.77c3.71.75,1.69-10.66,2.17-12.36a2.18,2.18,0,0,0-2.16-2.17H354.87c-30.19,2.17-30.19,46.11.22,47.22h19c9.4-.8,15.15,11.73,7.84,17.57-11.19,5.69-11.57-2.77-11,14.45-.12,4.08,8.4,2,10.88,2,28.27-3.18,29.82-47.25-4.28-48.33"/><path class="cls-1" d="M473.21,22.87H460.4a2.1,2.1,0,0,0-2.09,2.19V98.2C467.6,97,474.89,82.32,475.4,69.11c-1.06-1.15,2.53-48.37-2.19-46.24"/><path class="cls-1" d="M453.08,82.74c-10.8,8.62-29.65,5.69-31.28-13.8-1-1.06,2.53-48.36-2.2-46.07H407a2.14,2.14,0,0,0-2.18,2.2V69c0,29.47,32.39,43.9,50.08,30.76V88.12c-.2-1.56.81-5.42-1.8-5.38"/><path class="cls-1" d="M61.38.19C72,6,99.17,21.22,94.33,24.42c-.33.23-24.39,22-29,26-5.93,3.84-3.38-10.56-4.19-12-10.57-2.69-14,8-17.45,5.53L29.8,26.43a1.77,1.77,0,0,1,.32-2.64A51.87,51.87,0,0,1,59.14,12c.5-2.3-3.64-13.62,2.24-11.85"/><path class="cls-1" d="M128.09,64.71c-6.58,10.12-23.79,36.16-26.6,31.06-.19-.33-20.14-26-23.76-30.8-3.38-6.18,10.79-2.6,12.27-3.3,3.46-10.34-7-14.64-4.22-17.8L104.25,31.3a1.77,1.77,0,0,1,2.63.47,52,52,0,0,1,9.56,29.82c2.25.68,13.87-2.63,11.65,3.12"/><path class="cls-1" d="M.28,62.81c6.61-10.07,23.78-36.13,26.6-31,.21.32,20.15,26,23.77,30.81,3.38,6.15-10.8,2.6-12.26,3.31-3.47,10.27,6.94,14.59,4.21,17.78L24.12,96.26a1.78,1.78,0,0,1-2.62-.49,51.85,51.85,0,0,1-9.56-29.83C9.68,65.26-1.94,68.56.28,62.81"/><path class="cls-1" d="M61.26,127.21c-10.12-6.63-36.15-23.76-31-26.61.31-.2,25.95-20.13,30.8-23.75,6.16-3.4,2.58,10.8,3.28,12.27,10.34,3.47,14.59-6.94,17.81-4.23l12.58,18.49A1.75,1.75,0,0,1,94.2,106a51.88,51.88,0,0,1-29.83,9.57c-.67,2.25,2.61,13.87-3.11,11.65"/><path class="cls-1" d="M288.75,129.46c7.76,1.89,7.64-8.42,0-6.34Zm-2.1-7.84c11.07-3.85,14.48,11,2.1,9.56v6.54h-2.1Z"/><path class="cls-1" d="M305.16,131.74c-3.76-1-7.37,3.72-3,4.67C305.12,136.35,305.34,133.85,305.16,131.74Zm2.09,3.17a19.92,19.92,0,0,0,.16,2.81H305.5l-.19-1.48h-.07c-7.14,6.52-11.31-7-.12-6,.73-2.77-3.65-3.8-5.74-2.08l-.49-1.43C306.33,123.16,307.93,128.91,307.25,134.91Z"/><path class="cls-1" d="M310.54,135.56c2.79,2.42,8.14-1.11,2.93-3.07-6.93-2.29-.86-9.14,3.77-6l-.51,1.52c-2.56-2.16-7.06,1.4-2.13,2.94,7.15,2.58.42,9.69-4.57,6.24Z"/><path class="cls-1" d="M320.58,126h2.13v11.72h-2.13Zm1-2.15a1.37,1.37,0,0,1,0-2.74A1.37,1.37,0,0,1,321.6,123.85Z"/><path class="cls-1" d="M334.5,121.11l-2.95,3.46H330l2.13-3.46Zm-3.25,15.27c4.34.21,5.09-8.91.05-9S326.78,136.57,331.25,136.38Zm-.07,1.6c-7.52.41-7.17-12.83.2-12.24C339.33,125.38,338.1,138.84,331.18,138Z"/><path class="cls-1" d="M339.87,129.17c0-1.23,0-2.2-.1-3.17h1.89l.12,1.91h.05c1.9-3.22,8-3.38,8,2.81v7h-2.13c-.48-2.57,1.64-10.26-2.71-10.24-4.59,0-2.59,7.59-3,10.24h-2.13Z"/><path class="cls-1" d="M360.9,133c2.83,9.92,11.92-3.94,3.36-5.52C361.46,127.34,360.57,130.59,360.9,133Zm-2.13-3.13c0-1.5,0-2.71-.1-3.82h1.92l.12,2h.05c2.69-4.4,9.48-2,9.12,3.68.22,5.88-6,8.33-8.93,4.45h-.05v6.37h-2.13Z"/><path class="cls-1" d="M377.58,136.38c4.33.21,5.09-8.91.05-9S373.1,136.57,377.58,136.38Zm-.07,1.6c-7.52.41-7.17-12.83.19-12.24C385.65,125.38,384.43,138.84,377.51,138Z"/><path class="cls-1" d="M386.22,129.66c0-1.38,0-2.57-.1-3.66H388l.1,2.3h.07a3.42,3.42,0,0,1,3.85-2.49v2c-5.14-.87-3.39,7-3.68,9.93h-2.13Z"/><path class="cls-1" d="M493.24,136.38c4.33.21,5.09-8.91.05-9S488.76,136.57,493.24,136.38Zm-.07,1.6c-7.52.41-7.18-12.83.19-12.24C501.31,125.38,500.09,138.84,493.17,138Z"/><path class="cls-1" d="M509.77,130.6c-2.61-9.6-11.61,4.09-3.12,5.45C509.52,136.14,510,132.86,509.77,130.6Zm2.13,5.4c.63,6.39-5.48,8.16-9.85,5.81l.53-1.65c3.27,2.2,8.14.6,7.22-4.45h-.05c-2.54,4-9.15,1.35-8.72-3.78-.34-5.8,6.55-8.24,9-4.19H510l.07-1.74H512C511.83,127.76,511.93,134,511.9,136Z"/><path class="cls-1" d="M439.63,130.7c.39-4.53-6.11-4.43-6.19,0Zm-6.22,1.52c-.1,4.46,4.67,4.6,7.24,3.49l.39,1.5c-9.19,4.92-14.25-10.3-4.17-11.5,4.28.1,5.05,3.94,4.75,6.54Z"/><path class="cls-1" d="M452.85,137.3c-12.07,4.95-12.05-15.53,0-10.94l-.49,1.62c-8.72-3.94-8.39,11.84.07,7.73Z"/><path class="cls-1" d="M455.51,129.17c0-1.23,0-2.2-.1-3.17h1.89l.12,1.91h.05c1.9-3.22,8-3.38,8,2.81v7h-2.13c-.49-2.57,1.64-10.26-2.71-10.24-4.59,0-2.59,7.59-3,10.24h-2.13Z"/><path class="cls-1" d="M474,136.38c4.33.21,5.09-8.91.05-9S469.47,136.57,474,136.38Zm-.07,1.6c-7.52.41-7.17-12.83.19-12.24C482,125.38,480.8,138.84,473.88,138Z"/><path class="cls-1" d="M411.58,131.74c-3.77-1-7.37,3.72-3,4.67C411.53,136.35,411.76,133.85,411.58,131.74Zm2.08,3.17a19.81,19.81,0,0,0,.17,2.81h-1.91l-.2-1.48h-.07c-7.13,6.52-11.31-7-.12-6,.74-2.78-3.64-3.8-5.73-2.08l-.49-1.43C412.75,123.16,414.34,128.91,413.66,134.91Z"/></g></g></svg>